# xmcd
#
# Track frame offsets:
# 183
# 13723
# 24980
# 40988
# 53010
# 66553
# 80755
# 95425
# 106120
# 121780
# 138930
# 152003
# 171935
# 182020
# 193380
# 209233
#
# Disc length: 2971 seconds
#
#
# Revision: 0
# Processed by: cddbd v1.4PL0 Copyright (c) Steve Scherf et al.
# Submitted via: FreeRIP 2.30 
#
DISCID=e00b9910
DTITLE=The Wayfarers - Aussie Truckin' Favorites
DYEAR=1900
DGENRE=Truckin'
TTITLE0=Give Me The Road
TTITLE1=You Can Take Her Fron Naranderra
TTITLE2=Old Dingo
TTITLE3=The Angel On Goulburn Hill
TTITLE4=Gotta Keep Moving
TTITLE5=Highway No. 1
TTITLE6=I knew your Father Real Well
TTITLE7=Danger - Road Train
TTITLE8=Road Train Blues
TTITLE9=Neon City
TTITLE10=My Old Midnight Special
TTITLE11=Send Her Down Hughie
TTITLE12=Rolling and Roaring Through The Night
TTITLE13=The Boss Man
TTITLE14=Kellys Off Sider
TTITLE15=My Blue Pacific Rig
EXTD=
EXTT0=
EXTT1=
EXTT2=
EXTT3=
EXTT4=
EXTT5=
EXTT6=
EXTT7=
EXTT8=
EXTT9=
EXTT10=
EXTT11=
EXTT12=
EXTT13=
EXTT14=
EXTT15=
PLAYORDER=
